<?xml version="1.0" encoding="iso-8859-1"?>
<!-- Generator: Adobe Illustrator 16.0.0, SVG Export Plug-In . SVG Version: 6.00 Build 0)  -->
<!DOCTYPE svg PUBLIC "-//W3C//DTD SVG 1.1//EN" "http://www.w3.org/Graphics/SVG/1.1/DTD/svg11.dtd">
<svg version="1.1" id="Capa_1" xmlns="http://www.w3.org/2000/svg" xmlns:xlink="http://www.w3.org/1999/xlink" x="0px" y="0px"
	 width="450.791px" height="450.792px" viewBox="0 0 450.791 450.792" style="enable-background:new 0 0 450.791 450.792;"
	 xml:space="preserve">
<g>
	<path d="M225.395,0C101.113,0,0,101.112,0,225.392c0,124.285,101.113,225.398,225.395,225.398
		c124.282,0,225.396-101.113,225.396-225.398C450.791,101.112,349.677,0,225.395,0z M225.395,428.375
		c-111.92,0-202.981-91.054-202.981-202.983c0-111.924,91.061-202.978,202.981-202.978c111.922,0,202.98,91.054,202.98,202.978
		C428.375,337.322,337.316,428.375,225.395,428.375z M339.446,157.422c0,19.628-15.912,35.541-35.542,35.541
		c-19.634,0-35.546-15.912-35.546-35.541s15.912-35.543,35.546-35.543C323.534,121.878,339.446,137.793,339.446,157.422z
		 M183.252,179.077l-80.312-21.676l5.838-21.637l80.312,21.68L183.252,179.077z M320.462,267.083
		c0,48.662-42.644,88.252-95.062,88.252c-52.418,0-95.071-39.59-95.071-88.252c0-4.641,3.759-8.405,8.405-8.405
		c4.643,0,8.406,3.765,8.406,8.405c0,39.393,35.107,71.442,78.26,71.442c43.154,0,78.252-32.05,78.252-71.442
		c0-4.641,3.765-8.405,8.405-8.405C316.708,258.678,320.462,262.443,320.462,267.083z"/>
</g>
<g>
</g>
<g>
</g>
<g>
</g>
<g>
</g>
<g>
</g>
<g>
</g>
<g>
</g>
<g>
</g>
<g>
</g>
<g>
</g>
<g>
</g>
<g>
</g>
<g>
</g>
<g>
</g>
<g>
</g>
</svg>
